<svg id="Layer_1" data-name="Layer 1" xmlns="http://www.w3.org/2000/svg" viewBox="0 0 841.89 595.28"><defs><style>.cls-1{fill:#d54427;}.cls-2{fill:#231f20;}</style></defs><path class="cls-1" d="M462,245.35a10.43,10.43,0,0,0-5.21-3.31,27.19,27.19,0,0,0-7.26-.85,16.81,16.81,0,0,0-5.58.94,20.39,20.39,0,0,0-4.8,2.42,20.87,20.87,0,0,0-3.87,3.41l-.33.38v-3.93a5.18,5.18,0,0,0-5.18-5.18h0a5.18,5.18,0,0,0-5.17,5.18v8.66a4.78,4.78,0,0,0,4.74,4.78,10.7,10.7,0,0,1,1.13,0,13.32,13.32,0,0,0-.26,1.51c-.1.77-.18,1.74-.25,2.87,0,.39,0,1.44,0,2.65a5.17,5.17,0,0,0,5.17,5.24h0a5.17,5.17,0,0,0,5.17-5.12c0-1.69.05-3.28.08-3.84a35.07,35.07,0,0,1,.44-3.95,18.42,18.42,0,0,1,.92-3.49,9.37,9.37,0,0,1,1.5-2.68,6.35,6.35,0,0,1,2.19-1.71,7.22,7.22,0,0,1,3.17-.63,8.39,8.39,0,0,1,3.6.63,4,4,0,0,1,1.86,1.85,10.9,10.9,0,0,1,1,3.85,62,62,0,0,1,.27,6.29v22.51a5.17,5.17,0,0,0,5.17,5.18h0a5.18,5.18,0,0,0,5.18-5.18V261.33a47.8,47.8,0,0,0-.81-9.67A14.51,14.51,0,0,0,462,245.35Z"/><path class="cls-1" d="M505,250.05h0a13.22,13.22,0,0,0-2.76-6,12.23,12.23,0,0,0-5.57-3.66,27.17,27.17,0,0,0-8.68-1.17,23.74,23.74,0,0,0-7.86,1.17,13.69,13.69,0,0,0-5.63,3.61,14.88,14.88,0,0,0-3.24,5.93,28.34,28.34,0,0,0-1,7.94v5.51a5.18,5.18,0,0,0,5.18,5.18h0a5.18,5.18,0,0,0,5.18-5.18v-4.61c0-1.75.05-3.46.17-5.09a12.81,12.81,0,0,1,.91-4.09,5.67,5.67,0,0,1,2.12-2.59,7.55,7.55,0,0,1,4.19-1,7.41,7.41,0,0,1,4.2,1,5.85,5.85,0,0,1,2.11,2.64,12.41,12.41,0,0,1,.89,4.09c.1,1.65.16,3.34.16,5v25.1a5.17,5.17,0,0,0,5.17,5.18h0a5.18,5.18,0,0,0,5.18-5.18v-26A39.52,39.52,0,0,0,505,250.05Z"/><path class="cls-1" d="M236.55,249.59v95.53c-1.49-2.06-2.9-4.19-4.21-6.4-.74-1.24-1.44-2.51-2.11-3.81a79,79,0,0,1-5.31-12.75,80.19,80.19,0,0,1-3.41-16.56q-.39-3.93-.39-8a80.1,80.1,0,0,1,9.26-37.56c.74-1.42,1.53-2.8,2.35-4.17Z"/><path class="cls-1" d="M299.3,217l-43.55,74.37a1.42,1.42,0,0,1-2.64-.71V233.28h0A80.31,80.31,0,0,1,299.3,217Z"/><path class="cls-1" d="M299,378.33a81.32,81.32,0,0,1-16.11-2.2h0A80.15,80.15,0,0,1,253.11,362V304.54a1.42,1.42,0,0,1,2.64-.71Z"/><path class="cls-1" d="M333.55,371.92a80.45,80.45,0,0,1-16.26,5l-41.45-71.47a15.58,15.58,0,0,1,0-15.7l41.75-71.3a80.11,80.11,0,0,1,16.23,5.05L295,289.78a15.58,15.58,0,0,0,0,15.7Z"/><path class="cls-1" d="M360.29,353.66l-10.85,9.81a1.18,1.18,0,0,1-1.82-.28l-33.11-57.1a16.72,16.72,0,0,1,0-16.83l33.36-57a1.18,1.18,0,0,1,1.81-.28l10.82,9.86a1,1,0,0,1,.19,1.29l-27,46.14a16.7,16.7,0,0,0,0,16.82l26.82,46.25A1,1,0,0,1,360.29,353.66Z"/><path class="cls-1" d="M382.6,297.64q0,4-.39,8a80.09,80.09,0,0,1-10.66,32.83l-9.43-16.27-9.61-16.56h0a15.61,15.61,0,0,1,0-15.69l.51-.87,9.71-16.57,9-15.32A80.06,80.06,0,0,1,382.14,289,78.7,78.7,0,0,1,382.6,297.64Z"/><path class="cls-2" d="M468.76,351.83a2.41,2.41,0,0,1-2-1,2.28,2.28,0,0,1-.33-2.25l12.27-37.78a4.71,4.71,0,0,1,1.73-2.37,4.55,4.55,0,0,1,2.76-.91h4a4.8,4.8,0,0,1,2.86.91,4.39,4.39,0,0,1,1.7,2.37l12.21,37.78a2.31,2.31,0,0,1-.34,2.25,2.38,2.38,0,0,1-2,1h-4.07a4.46,4.46,0,0,1-4.32-3.34l-1.45-5.77a.53.53,0,0,0-.61-.49H479a.58.58,0,0,0-.61.49l-1.46,5.77a4.26,4.26,0,0,1-1.57,2.4,4.36,4.36,0,0,1-2.74.94ZM485,316.48l-4.43,17.43a.3.3,0,0,0,.09.33.44.44,0,0,0,.34.16h8.13a.44.44,0,0,0,.34-.16.3.3,0,0,0,.09-.33l-4.43-17.43a.06.06,0,0,0-.06-.06C485,316.42,485,316.44,485,316.48Z"/><path class="cls-2" d="M512.92,352a3.4,3.4,0,0,1-2.43-1.27,4,4,0,0,1-1-2.62V311.25a3.84,3.84,0,0,1,1-2.64,3.55,3.55,0,0,1,2.46-1.24,89.16,89.16,0,0,1,9.29-.49q17.61,0,17.62,11.36a9.25,9.25,0,0,1-2.46,6.5,11.36,11.36,0,0,1-6.6,3.4s-.06,0-.06.12,0,.06.12.06a12.52,12.52,0,0,1,7.63,3.65,10,10,0,0,1,2.82,7.1q0,6.75-4.46,10.06t-14,3.31Q518.08,352.44,512.92,352Zm6.74-36.32v8.93a.42.42,0,0,0,.48.48h1.52q8.87,0,8.87-5.28,0-5-7.41-5a15.73,15.73,0,0,0-3,.24A.61.61,0,0,0,519.66,315.63Zm0,17.37v10.69a.62.62,0,0,0,.54.67,17.12,17.12,0,0,0,3.1.24c2.88,0,5-.53,6.32-1.61a6,6,0,0,0,2-4.95q0-5.58-9.11-5.59h-2.37C519.82,332.45,519.66,332.64,519.66,333Z"/><path class="cls-2" d="M551.25,352a3.4,3.4,0,0,1-2.43-1.27,4,4,0,0,1-1-2.62V311.25a3.88,3.88,0,0,1,1-2.64,3.59,3.59,0,0,1,2.47-1.24,89.16,89.16,0,0,1,9.29-.49q17.61,0,17.62,11.36a9.25,9.25,0,0,1-2.46,6.5,11.36,11.36,0,0,1-6.6,3.4s-.06,0-.06.12,0,.06.12.06a12.52,12.52,0,0,1,7.63,3.65,10,10,0,0,1,2.82,7.1q0,6.75-4.46,10.06t-14,3.31Q556.41,352.44,551.25,352ZM558,315.63v8.93a.42.42,0,0,0,.48.48H560q8.87,0,8.87-5.28,0-5-7.41-5a15.66,15.66,0,0,0-3,.24A.61.61,0,0,0,558,315.63ZM558,333v10.69a.62.62,0,0,0,.54.67,17.12,17.12,0,0,0,3.1.24c2.88,0,5-.53,6.32-1.61a6,6,0,0,0,2-4.95q0-5.58-9.11-5.59h-2.37C558.15,332.45,558,332.64,558,333Z"/><path class="cls-2" d="M585.44,351.83a2.38,2.38,0,0,1-2-1,2.31,2.31,0,0,1-.34-2.25l12.27-37.78a4.73,4.73,0,0,1,1.74-2.37,4.53,4.53,0,0,1,2.76-.91h4a4.77,4.77,0,0,1,2.85.91,4.34,4.34,0,0,1,1.7,2.37l12.21,37.78a2.31,2.31,0,0,1-.33,2.25,2.41,2.41,0,0,1-2,1h-4.07a4.46,4.46,0,0,1-4.31-3.34l-1.46-5.77a.52.52,0,0,0-.6-.49H595.65a.57.57,0,0,0-.61.49l-1.46,5.77a4.27,4.27,0,0,1-1.58,2.4,4.33,4.33,0,0,1-2.73.94Zm16.22-35.35-4.43,17.43a.3.3,0,0,0,.09.33.44.44,0,0,0,.33.16h8.14a.47.47,0,0,0,.34-.16.3.3,0,0,0,.09-.33l-4.44-17.43a.06.06,0,1,0-.12,0Z"/><path d="M434.92,311a3.37,3.37,0,0,0-1-2.43,3.22,3.22,0,0,0-2.4-1h-3.46A3.52,3.52,0,0,0,424.6,311v37.42a3.52,3.52,0,0,0,3.46,3.46h3.46a3.22,3.22,0,0,0,2.4-1,3.37,3.37,0,0,0,1-2.43Z"/><path d="M460.47,349l-13-19.81a.68.68,0,0,1,0-.85l12.33-18a1.74,1.74,0,0,0,.12-1.88,1.63,1.63,0,0,0-1.57-1h-5.11A5.85,5.85,0,0,0,448,310.4l-11.39,17.21a2,2,0,0,0,0,2.2l12.08,19.1a5.7,5.7,0,0,0,5.22,2.92h5.07a1.87,1.87,0,0,0,1.63-.94A1.72,1.72,0,0,0,460.47,349Z"/></svg>