<svg width="107" height="106" viewBox="0 0 107 106" fill="none" xmlns="http://www.w3.org/2000/svg">
<path d="M100 0V100H0V0H100ZM2 98H98V2H2V98Z" fill="#2785F1"/>
<path d="M107 6V106H7V6H107ZM9 104H105V8H9V104Z" fill="black"/>
<path d="M57 88V59H62.5514L74.8971 79.4657H71.9557L84.0943 59H89.6043L89.6871 88H83.39L83.3486 68.6529H84.5086L74.8143 84.9343H71.79L61.8886 68.6529H63.2971V88H57Z" fill="black"/>
<path d="M20 48V19H32.5529C35.149 19 37.3862 19.4281 39.2643 20.2843C41.1424 21.1129 42.5924 22.3143 43.6143 23.8886C44.6362 25.4629 45.1471 27.341 45.1471 29.5229C45.1471 31.6771 44.6362 33.5414 43.6143 35.1157C42.5924 36.6624 41.1424 37.85 39.2643 38.6786C37.3862 39.5071 35.149 39.9214 32.5529 39.9214H23.7286L26.7114 36.98V48H20ZM38.4357 48L31.1857 37.4771H38.3529L45.6857 48H38.4357ZM26.7114 37.7257L23.7286 34.5771H32.18C34.2514 34.5771 35.7981 34.1352 36.82 33.2514C37.8419 32.34 38.3529 31.0971 38.3529 29.5229C38.3529 27.921 37.8419 26.6781 36.82 25.7943C35.7981 24.9105 34.2514 24.4686 32.18 24.4686H23.7286L26.7114 21.2786V37.7257Z" fill="black"/>
</svg>
